<svg xmlns="http://www.w3.org/2000/svg" width="1280" height="400" viewBox="0 0 1280 400" role="img" aria-labelledby="t d">
  <title id="t">Lenguajes de jldev1227 · languages</title>
  <desc id="d">Panel de cómic con la mezcla de lenguajes en 25 repositorios: Python 41%, C 26%, TypeScript 19%, Svelte 9.1%, JavaScript 1.7%.</desc>
  <defs>
    <pattern id="dots" width="16" height="16" patternUnits="userSpaceOnUse"><circle cx="3.5" cy="3.5" r="2.6" fill="#d91d3b" opacity="0.26"/></pattern>
    <filter id="shadow" x="-10%" y="-10%" width="130%" height="130%"><feDropShadow dx="7" dy="8" stdDeviation="0" flood-color="#000" flood-opacity=".55"/></filter>
    <clipPath id="panel"><rect x="8" y="8" width="1252" height="374" rx="24"/></clipPath>
  </defs>
  <style></style>

  <g filter="url(#shadow)"><rect x="8" y="8" width="1252" height="374" rx="24" fill="#fffdf6"/></g>
  <g clip-path="url(#panel)">
    <path d="M960 8h300v210z" fill="#ffd23f" opacity="1"/>
    <path d="M960 8h300v210z" fill="url(#dots)"/>
    <path d="M8 296l150 86h-150z" fill="url(#dots)"/>
  </g>

  <g transform="rotate(-0.7 54 62)">
    <rect x="54" y="40" width="285.9" height="44" fill="#080b16" stroke="#080b16" stroke-width="3"/>
    <text x="71" y="69" fill="#fffdf6" font-family="Arial,Helvetica,sans-serif" font-size="17" font-weight="900" letter-spacing="1.5">LENGUAJES · LANGUAGES</text>
  </g>
  <text x="54" y="118" fill="#5c6675" font-family="ui-monospace,SFMono-Regular,Menlo,Consolas,monospace" font-size="13">POR BYTES EN 25 REPOSITORIOS PÚBLICOS  ·  BY BYTES ACROSS 25 PUBLIC REPOSITORIES</text>

  <!-- One bar, ink-framed, each language as wide as it is written. -->
  <g><rect x="54" y="140" width="481.12" height="56" fill="#3572A5" stroke="#080b16" stroke-width="1.6"><title>Python · 41%</title></rect><rect x="535.12" y="140" width="303.58" height="56" fill="#555555" stroke="#080b16" stroke-width="1.6"><title>C · 26%</title></rect><rect x="838.7" y="140" width="214.61" height="56" fill="#3178c6" stroke="#080b16" stroke-width="1.6"><title>TypeScript · 19%</title></rect><rect x="1053.31" y="140" width="105.07" height="56" fill="#ff3e00" stroke="#080b16" stroke-width="1.6"><title>Svelte · 9.1%</title></rect><rect x="1158.38" y="140" width="19.89" height="56" fill="#f1e05a" stroke="#080b16" stroke-width="1.6"><title>JavaScript · 1.7%</title></rect><rect x="1178.27" y="140" width="9.48" height="56" fill="#e34c26" stroke="#080b16" stroke-width="1.6"><title>HTML · 0.8%</title></rect><rect x="1187.76" y="140" width="7.09" height="56" fill="#336790" stroke="#080b16" stroke-width="1.6"><title>PLpgSQL · 0.6%</title></rect><rect x="1194.85" y="140" width="5.9" height="56" fill="#f34b7d" stroke="#080b16" stroke-width="1.6"><title>C++ · 0.5%</title></rect><rect x="1200.75" y="140" width="13.25" height="56" fill="#5c6675" stroke="#080b16" stroke-width="1.6"><title>OTROS · OTHER · 1.1%</title></rect></g>
  <rect x="54" y="140" width="1160" height="56" rx="6" fill="none" stroke="#080b16" stroke-width="4"/>

  <path d="M54 228H1214" stroke="#ded6c5" stroke-width="3"/>
  <rect x="54" y="256" width="20" height="20" rx="4" fill="#3572A5" stroke="#080b16" stroke-width="1.6"/><text x="84" y="272" fill="#080b16" font-family="Arial,Helvetica,sans-serif" font-size="17" font-weight="700">Python</text><text x="316" y="274" text-anchor="end" fill="#5c6675" font-family="Arial Black,Arial Bold,Impact,Haettenschweiler,sans-serif" font-size="24" letter-spacing="-0.5">41%</text><rect x="344" y="256" width="20" height="20" rx="4" fill="#555555" stroke="#080b16" stroke-width="1.6"/><text x="374" y="272" fill="#080b16" font-family="Arial,Helvetica,sans-serif" font-size="17" font-weight="700">C</text><text x="606" y="274" text-anchor="end" fill="#5c6675" font-family="Arial Black,Arial Bold,Impact,Haettenschweiler,sans-serif" font-size="24" letter-spacing="-0.5">26%</text><rect x="634" y="256" width="20" height="20" rx="4" fill="#3178c6" stroke="#080b16" stroke-width="1.6"/><text x="664" y="272" fill="#080b16" font-family="Arial,Helvetica,sans-serif" font-size="17" font-weight="700">TypeScript</text><text x="896" y="274" text-anchor="end" fill="#5c6675" font-family="Arial Black,Arial Bold,Impact,Haettenschweiler,sans-serif" font-size="24" letter-spacing="-0.5">19%</text><rect x="924" y="256" width="20" height="20" rx="4" fill="#ff3e00" stroke="#080b16" stroke-width="1.6"/><text x="954" y="272" fill="#080b16" font-family="Arial,Helvetica,sans-serif" font-size="17" font-weight="700">Svelte</text><text x="1186" y="274" text-anchor="end" fill="#5c6675" font-family="Arial Black,Arial Bold,Impact,Haettenschweiler,sans-serif" font-size="24" letter-spacing="-0.5">9.1%</text><rect x="54" y="312" width="20" height="20" rx="4" fill="#f1e05a" stroke="#080b16" stroke-width="1.6"/><text x="84" y="328" fill="#080b16" font-family="Arial,Helvetica,sans-serif" font-size="17" font-weight="700">JavaScript</text><text x="316" y="330" text-anchor="end" fill="#5c6675" font-family="Arial Black,Arial Bold,Impact,Haettenschweiler,sans-serif" font-size="24" letter-spacing="-0.5">1.7%</text><rect x="344" y="312" width="20" height="20" rx="4" fill="#e34c26" stroke="#080b16" stroke-width="1.6"/><text x="374" y="328" fill="#080b16" font-family="Arial,Helvetica,sans-serif" font-size="17" font-weight="700">HTML</text><text x="606" y="330" text-anchor="end" fill="#5c6675" font-family="Arial Black,Arial Bold,Impact,Haettenschweiler,sans-serif" font-size="24" letter-spacing="-0.5">0.8%</text><rect x="634" y="312" width="20" height="20" rx="4" fill="#336790" stroke="#080b16" stroke-width="1.6"/><text x="664" y="328" fill="#080b16" font-family="Arial,Helvetica,sans-serif" font-size="17" font-weight="700">PLpgSQL</text><text x="896" y="330" text-anchor="end" fill="#5c6675" font-family="Arial Black,Arial Bold,Impact,Haettenschweiler,sans-serif" font-size="24" letter-spacing="-0.5">0.6%</text><rect x="924" y="312" width="20" height="20" rx="4" fill="#f34b7d" stroke="#080b16" stroke-width="1.6"/><text x="954" y="328" fill="#080b16" font-family="Arial,Helvetica,sans-serif" font-size="17" font-weight="700">C++</text><text x="1186" y="330" text-anchor="end" fill="#5c6675" font-family="Arial Black,Arial Bold,Impact,Haettenschweiler,sans-serif" font-size="24" letter-spacing="-0.5">0.5%</text>
</svg>
